<svg width="1200" height="280" viewBox="0 0 1200 280" fill="none" xmlns="http://www.w3.org/2000/svg">
  <rect width="1200" height="280" fill="#0D1117"/>

  <rect x="0" y="20" width="1200" height="140" fill="#7B5592"/>

  <path d="M0 150 C150 165 180 130 250 175 C310 215 350 170 430 180 C560 200 660 205 800 175 C900 155 900 215 1000 175 C1080 145 1100 175 1200 150 L1200 280 L0 280 Z" fill="#2A2438"/>

  <path d="M0 145 C180 155 160 175 240 180 C310 185 315 230 385 165 C430 125 520 185 650 160 C750 140 735 185 805 175 C865 165 870 125 930 140 C985 155 975 130 1045 125 C1110 120 1110 150 1200 140" stroke="#D9D2E8" stroke-width="34" stroke-opacity="0.75"/>

  <rect x="210" y="45" width="780" height="90" rx="18" fill="#5B4070" opacity="0.95"/>

  <text x="300" y="98" fill="white" font-size="46" font-family="monospace" font-weight="700" letter-spacing="8">
    Bruno Santana
  </text>

  <text x="690" y="126" fill="white" font-size="25" font-family="Arial" font-style="italic" font-weight="700">
    Computer Science Student
  </text>

  <text x="72" y="230" fill="#E6E6E6" font-size="28" font-family="Arial" font-weight="700">
    Design • Backend • Technology
  </text>
</svg>
